<svg width="180" height="61" viewBox="0 0 180 61" fill="none" xmlns="http://www.w3.org/2000/svg">
<path d="M12.8403 48V14.808H19.4163V42.672H34.0563L33.3603 48H12.8403ZM49.6615 21.864C52.1895 21.864 54.3335 22.416 56.0935 23.52C57.8535 24.624 59.1895 26.184 60.1015 28.2C61.0295 30.2 61.4935 32.544 61.4935 35.232C61.4935 37.984 61.0295 40.368 60.1015 42.384C59.1735 44.4 57.8295 45.96 56.0695 47.064C54.3095 48.168 52.1655 48.72 49.6375 48.72C47.1255 48.72 44.9815 48.184 43.2055 47.112C41.4455 46.024 40.1015 44.48 39.1735 42.48C38.2455 40.464 37.7815 38.064 37.7815 35.28C37.7815 32.624 38.2455 30.288 39.1735 28.272C40.1015 26.256 41.4535 24.688 43.2295 23.568C45.0055 22.432 47.1495 21.864 49.6615 21.864ZM49.6615 26.64C47.8855 26.64 46.5575 27.336 45.6775 28.728C44.8135 30.12 44.3815 32.304 44.3815 35.28C44.3815 38.288 44.8135 40.488 45.6775 41.88C46.5415 43.256 47.8615 43.944 49.6375 43.944C51.4135 43.944 52.7335 43.256 53.5975 41.88C54.4615 40.488 54.8935 38.272 54.8935 35.232C54.8935 32.272 54.4615 30.104 53.5975 28.728C52.7335 27.336 51.4215 26.64 49.6615 26.64ZM88.6187 46.584C87.6747 47.208 86.5307 47.72 85.1867 48.12C83.8427 48.52 82.3867 48.72 80.8187 48.72C77.7147 48.72 75.3787 47.92 73.8107 46.32C72.2427 44.704 71.4587 42.56 71.4587 39.888V27.072H65.9387V22.584H71.4587V16.992L77.7947 16.224V22.584H86.1947L85.5467 27.072H77.7947V39.864C77.7947 41.176 78.1147 42.136 78.7547 42.744C79.3947 43.352 80.4267 43.656 81.8507 43.656C82.7627 43.656 83.5947 43.552 84.3467 43.344C85.1147 43.12 85.8107 42.84 86.4347 42.504L88.6187 46.584ZM159.099 44.04C160.587 44.04 161.779 43.784 162.675 43.272C163.587 42.744 164.043 42.008 164.043 41.064C164.043 40.44 163.891 39.912 163.587 39.48C163.299 39.048 162.723 38.648 161.859 38.28C160.995 37.896 159.699 37.472 157.971 37.008C156.339 36.592 154.907 36.08 153.675 35.472C152.459 34.848 151.507 34.048 150.819 33.072C150.147 32.096 149.811 30.864 149.811 29.376C149.811 27.888 150.227 26.584 151.059 25.464C151.891 24.328 153.091 23.448 154.659 22.824C156.243 22.184 158.147 21.864 160.371 21.864C162.547 21.864 164.451 22.152 166.083 22.728C167.715 23.288 169.115 23.992 170.283 24.84L167.691 28.704C166.667 28.048 165.555 27.52 164.355 27.12C163.171 26.704 161.891 26.496 160.515 26.496C159.027 26.496 157.939 26.712 157.251 27.144C156.579 27.576 156.243 28.176 156.243 28.944C156.243 29.488 156.411 29.952 156.747 30.336C157.099 30.704 157.723 31.064 158.619 31.416C159.531 31.752 160.827 32.16 162.507 32.64C164.155 33.088 165.587 33.616 166.803 34.224C168.035 34.832 168.987 35.64 169.659 36.648C170.331 37.656 170.667 38.976 170.667 40.608C170.667 42.448 170.131 43.968 169.059 45.168C167.987 46.368 166.571 47.264 164.811 47.856C163.067 48.432 161.171 48.72 159.122 48.72C156.723 48.72 154.627 48.376 152.835 47.688C151.043 47 149.523 46.112 148.275 45.024L151.562 41.328C152.555 42.112 153.683 42.76 154.947 43.272C156.227 43.784 157.611 44.04 159.099 44.04Z" fill="#00897B"/>
<path d="M118.88 15.1525C117.97 16.1848 116.25 18.6 116.03 19.1494C115.99 19.2536 115.76 19.6892 115.5 20.1344C114.52 21.8582 113.63 24.2355 113.09 26.6223C112.82 27.8062 112.71 31.0549 112.9 32.3998C113.02 33.2333 113.62 35.639 113.95 36.5672C114.79 38.9445 116.44 41.8522 118.28 44.2106C119.54 45.8207 119.46 45.8207 120.74 44.1633C121.9 42.6668 122.33 42.0322 123.16 40.5925C124.3 38.6036 124.98 36.9555 125.59 34.7014C126.15 32.6271 126.23 31.8789 126.17 29.5016C126.13 27.8062 126.08 27.3042 125.87 26.4329C125.33 24.1503 124.59 22.1613 123.62 20.3712C123.37 19.8976 123.1 19.3862 123.02 19.2346C122.34 17.937 119.8 14.5463 119.5 14.5463C119.45 14.5463 119.17 14.821 118.88 15.1525Z" fill="#00897B"/>
<path d="M106.95 15.9576C106.81 16.1849 106.21 17.8803 106.06 18.477C105.77 19.7083 105.42 21.3184 105.36 21.7541L105.29 22.1898L106.02 22.455C106.91 22.777 108.89 23.6768 109.87 24.1977L110.59 24.5765L110.75 24.0367C110.84 23.7431 111.05 23.1369 111.22 22.6917C111.39 22.2466 111.61 21.6688 111.7 21.4131C111.8 21.1479 112.03 20.627 112.21 20.2387L112.54 19.5378L112.28 19.3389C112.14 19.2347 111.6 18.799 111.07 18.3823C110.05 17.5677 109.17 16.9616 108.05 16.2891C107.36 15.8818 107.07 15.7871 106.95 15.9576Z" fill="#00897B"/>
<path d="M130.9 16.3269C130.48 16.5732 129.86 16.9615 129.51 17.1983C128.58 17.8329 126.5 19.4809 126.5 19.5946C126.5 19.6514 126.64 19.9734 126.81 20.3144C127.13 20.9584 127.37 21.5551 127.97 23.26C128.16 23.8093 128.35 24.3302 128.38 24.4155C128.44 24.5481 128.6 24.4912 129.5 24.0082C130.43 23.5157 132.89 22.436 133.48 22.2655C133.75 22.1897 133.74 22.2844 133.51 21.0721C132.87 17.8518 132.23 15.8723 131.83 15.8723C131.73 15.8818 131.31 16.0807 130.9 16.3269Z" fill="#00897B"/>
<path d="M96.11 23.2411C96.06 23.3263 96.04 23.5063 96.06 23.6389C96.51 26.5466 97.05 28.7534 97.82 30.7329C100.31 37.1924 104.39 41.1419 111.15 43.6613C112.5 44.1538 114.81 44.8074 115.01 44.7411C115.07 44.7221 114.98 44.5327 114.81 44.3243C114.33 43.6803 113.13 41.6913 112.59 40.6115C112.06 39.5507 111.14 37.3155 110.87 36.4252C110.08 33.8111 109.72 31.0265 109.9 28.8292C110.01 27.399 110.07 27.5316 109.1 26.9538C106.22 25.2585 102.29 23.9325 98.15 23.26C96.68 23.0232 96.24 23.0137 96.11 23.2411Z" fill="#00897B"/>
<path d="M140.76 23.2694C137.56 23.7998 134.32 24.7564 132 25.8646C130.88 26.395 129.15 27.361 129.06 27.5126C129.03 27.5599 129.05 28.1566 129.1 28.8386C129.31 31.6326 128.74 35.0044 127.52 38.0826C126.7 40.1663 125.48 42.4774 124.38 44.0212C124.17 44.3243 123.97 44.6274 123.94 44.7031C123.86 44.8925 126.37 44.2201 127.97 43.6234C134.62 41.1324 138.68 37.1734 141.16 30.7613C142.15 28.2135 143.17 23.6577 142.86 23.1842C142.76 23.0232 142.03 23.0516 140.76 23.2694Z" fill="#00897B"/>
<path d="M97.8899 38.7267C96.9199 39.3613 96.1199 39.9485 96.0599 40.0906C95.9399 40.3653 97.7099 42.61 99.3399 44.258C102.2 47.1373 106.02 48.7095 109.29 48.3591C110.5 48.2265 110.9 48.1412 112.33 47.7245C113.39 47.4025 113.76 47.2225 113.35 47.2225C113.18 47.2225 111.64 46.749 110.2 46.2564C108.62 45.7071 107.61 45.243 105.55 44.1443C103.62 43.112 100.77 40.7915 99.4999 39.2192C99.2899 38.954 99.0099 38.632 98.8799 38.4899L98.6499 38.2437L97.8899 38.7267Z" fill="#00897B"/>
<path d="M139.94 38.7172C138.33 40.6968 135.62 42.9699 133.51 44.1065C131.72 45.0631 131.4 45.2335 131.36 45.2335C131.33 45.2335 130.92 45.404 130.45 45.6124C129.48 46.0386 126.45 47.071 125.87 47.1752C125.67 47.2131 125.5 47.2699 125.5 47.3078C125.5 47.3741 127.61 48.0276 128.33 48.1697C131.07 48.7285 133.86 48.2454 136.4 46.7679C138.01 45.8302 139.64 44.419 141.27 42.5342C142.06 41.625 143.01 40.2137 142.92 40.0717C142.83 39.9201 141.64 39.0487 140.89 38.5846L140.32 38.2342L139.94 38.7172Z" fill="#00897B"/>
</svg>
